<?xml version="1.0" encoding="UTF-8" standalone="no"?>
<!-- Created with Inkscape (http://www.inkscape.org/) -->
<svg
   xmlns:dc="http://purl.org/dc/elements/1.1/"
   xmlns:cc="http://creativecommons.org/ns#"
   xmlns:rdf="http://www.w3.org/1999/02/22-rdf-syntax-ns#"
   xmlns:svg="http://www.w3.org/2000/svg"
   xmlns="http://www.w3.org/2000/svg"
   xmlns:sodipodi="http://sodipodi.sourceforge.net/DTD/sodipodi-0.dtd"
   xmlns:inkscape="http://www.inkscape.org/namespaces/inkscape"
   width="210mm"
   height="297mm"
   id="svg2"
   sodipodi:version="0.32"
   inkscape:version="0.46"
   sodipodi:docname="clarinette.svg"
   inkscape:output_extension="org.inkscape.output.svg.inkscape"
   sodipodi:modified="true">
  <defs
     id="defs4" />
  <sodipodi:namedview
     id="base"
     pagecolor="#ffffff"
     bordercolor="#666666"
     borderopacity="1.0"
     inkscape:pageopacity="1"
     inkscape:pageshadow="2"
     inkscape:zoom="0.50742986"
     inkscape:cx="-179.50683"
     inkscape:cy="526.34236"
     inkscape:document-units="px"
     inkscape:current-layer="layer1"
     inkscape:window-width="1440"
     inkscape:window-height="825"
     inkscape:window-x="0"
     inkscape:window-y="49"
     showgrid="false"
     inkscape:showpageshadow="false"
     showborder="false" />
  <metadata
     id="metadata7">
    <rdf:RDF>
      <cc:Work
         rdf:about="">
        <dc:format>image/svg+xml</dc:format>
        <dc:type
           rdf:resource="http://purl.org/dc/dcmitype/StillImage" />
        <dc:title>Clarinette</dc:title>
        <dc:date>14/09/2008</dc:date>
        <dc:creator>
          <cc:Agent>
            <dc:title>François SENEQUIER</dc:title>
          </cc:Agent>
        </dc:creator>
      </cc:Work>
    </rdf:RDF>
  </metadata>
  <g
     inkscape:label="Calque 1"
     inkscape:groupmode="layer"
     id="layer1">
    <rect
       style="fill:#000000;fill-opacity:1;stroke-width:1;stroke-miterlimit:4;stroke-dasharray:none"
       id="rect6550"
       width="181.6403"
       height="482.55151"
       x="285.6041"
       y="529.19269" />
    <rect
       style="fill:#000000;fill-opacity:1;stroke-width:1;stroke-miterlimit:4;stroke-dasharray:none"
       id="rect3224"
       width="179.57777"
       height="465.7164"
       x="284.87177"
       y="56.651684" />
    <path
       sodipodi:type="arc"
       style="fill:#CouleurE;fill-opacity:1;fill-rule:nonzero;stroke:#000000;stroke-width:5;stroke-miterlimit:4;stroke-dasharray:none;stroke-opacity:1"
       id="ActionE"
       sodipodi:cx="336.00702"
       sodipodi:cy="267.03198"
       sodipodi:rx="20.692514"
       sodipodi:ry="20.692514"
       d="M 356.69953,267.03198 A 20.692514,20.692514 0 1 1 315.3145,267.03198 A 20.692514,20.692514 0 1 1 356.69953,267.03198 z"
       transform="matrix(2.4051101,0,0,1.4154136,-432.22442,-122.4733)"
       inkscape:label="#ActionE" />
    <path
       sodipodi:type="arc"
       style="fill:#CouleurF;fill-opacity:1;fill-rule:nonzero;stroke:#000000;stroke-width:5;stroke-miterlimit:4;stroke-dasharray:none;stroke-opacity:1"
       id="ActionF"
       sodipodi:cx="336.00702"
       sodipodi:cy="267.03198"
       sodipodi:rx="20.692514"
       sodipodi:ry="20.692514"
       d="M 356.69953,267.03198 A 20.692514,20.692514 0 1 1 315.3145,267.03198 A 20.692514,20.692514 0 1 1 356.69953,267.03198 z"
       transform="matrix(2.4051101,0,0,1.4154136,-433.20605,-23.185886)" />
    <path
       sodipodi:type="arc"
       style="fill:#CouleurH;fill-opacity:1;fill-rule:nonzero;stroke:#000000;stroke-width:5;stroke-miterlimit:4;stroke-dasharray:none;stroke-opacity:1"
       id="ActionH"
       sodipodi:cx="336.00702"
       sodipodi:cy="267.03198"
       sodipodi:rx="20.692514"
       sodipodi:ry="20.692514"
       d="M 356.69953,267.03198 A 20.692514,20.692514 0 1 1 315.3145,267.03198 A 20.692514,20.692514 0 1 1 356.69953,267.03198 z"
       transform="matrix(2.4051101,0,0,1.4154136,-433.20606,74.516235)" />
    <path
       sodipodi:type="arc"
       style="fill:#CouleurQ;fill-opacity:1;fill-rule:nonzero;stroke:#000000;stroke-width:5;stroke-miterlimit:4;stroke-dasharray:none;stroke-opacity:1"
       id="ActionQ"
       sodipodi:cx="336.00702"
       sodipodi:cy="267.03198"
       sodipodi:rx="20.692514"
       sodipodi:ry="20.692514"
       d="M 356.69953,267.03198 A 20.692514,20.692514 0 1 1 315.3145,267.03198 A 20.692514,20.692514 0 1 1 356.69953,267.03198 z"
       transform="matrix(2.4051101,0,0,1.4154136,-434.391,241.51996)" />
    <path
       sodipodi:type="arc"
       style="fill:#CouleurR;fill-opacity:1;fill-rule:nonzero;stroke:#000000;stroke-width:5;stroke-miterlimit:4;stroke-dasharray:none;stroke-opacity:1"
       id="ActionR"
       sodipodi:cx="336.00702"
       sodipodi:cy="267.03198"
       sodipodi:rx="20.692514"
       sodipodi:ry="20.692514"
       d="M 356.69953,267.03198 A 20.692514,20.692514 0 1 1 315.3145,267.03198 A 20.692514,20.692514 0 1 1 356.69953,267.03198 z"
       transform="matrix(2.4051101,0,0,1.4154136,-432.02108,331.83632)" />
    <path
       sodipodi:type="arc"
       style="fill:#CouleurT;fill-opacity:1;fill-rule:nonzero;stroke:#000000;stroke-width:5;stroke-miterlimit:4;stroke-dasharray:none;stroke-opacity:1"
       id="ActionT"
       sodipodi:cx="336.00702"
       sodipodi:cy="267.03198"
       sodipodi:rx="20.692514"
       sodipodi:ry="20.692514"
       d="M 356.69953,267.03198 A 20.692514,20.692514 0 1 1 315.3145,267.03198 A 20.692514,20.692514 0 1 1 356.69953,267.03198 z"
       transform="matrix(2.4051101,0,0,1.4154136,-435.64989,429.46454)" />
    <path
       sodipodi:type="arc"
       style="fill:#CouleurU;fill-opacity:1;fill-rule:nonzero;stroke:#000000;stroke-width:5;stroke-miterlimit:4;stroke-dasharray:none;stroke-opacity:1"
       id="ActionU"
       sodipodi:cx="336.00702"
       sodipodi:cy="267.03198"
       sodipodi:rx="20.692514"
       sodipodi:ry="20.692514"
       d="M 356.69953,267.03198 A 20.692514,20.692514 0 1 1 315.3145,267.03198 A 20.692514,20.692514 0 1 1 356.69953,267.03198 z"
       transform="matrix(-0.7624239,0.5070379,-2.9171912,-1.9457351,1287.8332,1247.3917)" />
    <path
       sodipodi:type="arc"
       style="fill:#CouleurW;fill-opacity:1;fill-rule:nonzero;stroke:#000000;stroke-width:5;stroke-miterlimit:4;stroke-dasharray:none;stroke-opacity:1"
       id="ActionW"
       sodipodi:cx="336.00702"
       sodipodi:cy="267.03198"
       sodipodi:rx="20.692514"
       sodipodi:ry="20.692514"
       d="M 356.69953,267.03198 A 20.692514,20.692514 0 1 1 315.3145,267.03198 A 20.692514,20.692514 0 1 1 356.69953,267.03198 z"
       transform="matrix(-0.7665637,0.4293265,-2.933031,-1.6475212,1307.3721,1229.4656)" />
    <path
       sodipodi:type="arc"
       style="fill:#CouleurX;fill-opacity:1;fill-rule:nonzero;stroke:#000000;stroke-width:5;stroke-miterlimit:4;stroke-dasharray:none;stroke-opacity:1"
       id="ActionX"
       sodipodi:cx="336.00702"
       sodipodi:cy="267.03198"
       sodipodi:rx="20.692514"
       sodipodi:ry="20.692514"
       d="M 356.69953,267.03198 A 20.692514,20.692514 0 1 1 315.3145,267.03198 A 20.692514,20.692514 0 1 1 356.69953,267.03198 z"
       transform="matrix(-0.7653541,0.4510324,-2.9284031,-1.7308166,1362.9473,1262.4371)" />
    <path
       sodipodi:type="arc"
       style="fill:#CouleurV;fill-opacity:1;fill-rule:nonzero;stroke:#000000;stroke-width:5;stroke-miterlimit:4;stroke-dasharray:none;stroke-opacity:1"
       id="ActionV"
       sodipodi:cx="336.00702"
       sodipodi:cy="267.03198"
       sodipodi:rx="20.692514"
       sodipodi:ry="20.692514"
       d="M 356.69953,267.03198 A 20.692514,20.692514 0 1 1 315.3145,267.03198 A 20.692514,20.692514 0 1 1 356.69953,267.03198 z"
       transform="matrix(-0.7636035,0.4831019,-2.9217044,-1.8538824,1352.2181,1244.2973)" />
    <path
       sodipodi:type="arc"
       style="fill:#CouleurS;fill-opacity:1;fill-rule:nonzero;stroke:#000000;stroke-width:5;stroke-miterlimit:4;stroke-dasharray:none;stroke-opacity:1"
       id="ActionS"
       sodipodi:cx="336.00702"
       sodipodi:cy="267.03198"
       sodipodi:rx="20.692514"
       sodipodi:ry="20.692514"
       d="M 356.69953,267.03198 A 20.692514,20.692514 0 1 1 315.3145,267.03198 A 20.692514,20.692514 0 1 1 356.69953,267.03198 z"
       transform="matrix(-0.5764012,0.5368092,-3.7441795,-0.6094968,1550.9364,734.8256)" />
    <path
       sodipodi:type="arc"
       style="fill:#CouleurD;fill-opacity:1;fill-rule:nonzero;stroke:#000000;stroke-width:5;stroke-miterlimit:4;stroke-dasharray:none;stroke-opacity:1"
       id="ActionD"
       sodipodi:cx="336.00702"
       sodipodi:cy="267.03198"
       sodipodi:rx="20.692514"
       sodipodi:ry="20.692514"
       d="M 356.69953,267.03198 A 20.692514,20.692514 0 1 1 315.3145,267.03198 A 20.692514,20.692514 0 1 1 356.69953,267.03198 z"
       transform="matrix(-1.0847361,-0.8443886,0.3261511,-2.7101486,734.59709,1155.1349)"
       inkscape:transform-center-x="-39.913115"
       inkscape:transform-center-y="22.649416"
       inkscape:label="#ActionD" />
    <path
       sodipodi:type="arc"
       style="fill:#CouleurM;fill-opacity:1;fill-rule:nonzero;stroke:#000000;stroke-width:5;stroke-miterlimit:4;stroke-dasharray:none;stroke-opacity:1"
       id="ActionM"
       sodipodi:cx="336.00702"
       sodipodi:cy="267.03198"
       sodipodi:rx="20.692514"
       sodipodi:ry="20.692514"
       d="M 356.69953,267.03198 A 20.692514,20.692514 0 1 1 315.3145,267.03198 A 20.692514,20.692514 0 1 1 356.69953,267.03198 z"
       transform="matrix(-0.4844886,0.6866331,-2.8348655,-0.1416521,1171.5498,398.36554)"
       inkscape:transform-center-x="64.812105"
       inkscape:transform-center-y="-1.7788944e-05" />
    <path
       sodipodi:type="arc"
       style="fill:#CouleurN;fill-opacity:1;fill-rule:nonzero;stroke:#000000;stroke-width:5;stroke-miterlimit:4;stroke-dasharray:none;stroke-opacity:1"
       id="ActionN"
       sodipodi:cx="336.00702"
       sodipodi:cy="267.03198"
       sodipodi:rx="20.692514"
       sodipodi:ry="20.692514"
       d="M 356.69953,267.03198 A 20.692514,20.692514 0 1 1 315.3145,267.03198 A 20.692514,20.692514 0 1 1 356.69953,267.03198 z"
       transform="matrix(0.270196,0.791018,-2.2056914,0.6094408,1014.6492,92.053885)" />
    <path
       sodipodi:type="arc"
       style="fill:#CouleurP;fill-opacity:1;fill-rule:nonzero;stroke:#000000;stroke-width:5;stroke-miterlimit:4;stroke-dasharray:none;stroke-opacity:1"
       id="ActionP"
       sodipodi:cx="336.00702"
       sodipodi:cy="267.03198"
       sodipodi:rx="20.692514"
       sodipodi:ry="20.692514"
       d="M 356.69953,267.03198 A 20.692514,20.692514 0 1 1 315.3145,267.03198 A 20.692514,20.692514 0 1 1 356.69953,267.03198 z"
       transform="matrix(0.9651551,-9.394216e-2,-9.5383925e-2,2.3150386,195.40737,-4.5786666)" />
    <path
       sodipodi:type="arc"
       style="fill:#CouleurL;fill-opacity:1;fill-rule:nonzero;stroke:#000000;stroke-width:5;stroke-miterlimit:4;stroke-dasharray:none;stroke-opacity:1"
       id="ActionL"
       sodipodi:cx="336.00702"
       sodipodi:cy="267.03198"
       sodipodi:rx="20.692514"
       sodipodi:ry="20.692514"
       d="M 356.69953,267.03198 A 20.692514,20.692514 0 1 1 315.3145,267.03198 A 20.692514,20.692514 0 1 1 356.69953,267.03198 z"
       transform="matrix(-0.4240257,0.6942716,-2.481081,-0.1432278,1063.9279,357.39724)"
       inkscape:transform-center-x="56.723748"
       inkscape:transform-center-y="4.580936e-05" />
    <path
       sodipodi:type="arc"
       style="fill:#CouleurK;fill-opacity:1;fill-rule:nonzero;stroke:#000000;stroke-width:5;stroke-miterlimit:4;stroke-dasharray:none;stroke-opacity:1"
       id="ActionK"
       sodipodi:cx="336.00702"
       sodipodi:cy="267.03198"
       sodipodi:rx="20.692514"
       sodipodi:ry="20.692514"
       d="M 356.69953,267.03198 A 20.692514,20.692514 0 1 1 315.3145,267.03198 A 20.692514,20.692514 0 1 1 356.69953,267.03198 z"
       transform="matrix(-0.3776405,0.7005744,-2.2096697,-0.1445282,984.45272,316.66573)"
       inkscape:transform-center-x="50.518635"
       inkscape:transform-center-y="-1.2296183e-05" />
    <path
       sodipodi:type="arc"
       style="fill:#CouleurJ;fill-opacity:1;fill-rule:nonzero;stroke:#000000;stroke-width:5;stroke-miterlimit:4;stroke-dasharray:none;stroke-opacity:1"
       id="ActionJ"
       sodipodi:cx="336.00702"
       sodipodi:cy="267.03198"
       sodipodi:rx="20.692514"
       sodipodi:ry="20.692514"
       d="M 356.69953,267.03198 A 20.692514,20.692514 0 1 1 315.3145,267.03198 A 20.692514,20.692514 0 1 1 356.69953,267.03198 z"
       transform="matrix(-0.3776405,0.7005744,-2.2096697,-0.1445282,985.95542,277.10526)"
       inkscape:transform-center-x="50.5186" />
    <path
       sodipodi:type="arc"
       style="fill:#CouleurI;fill-opacity:1;fill-rule:nonzero;stroke:#000000;stroke-width:5;stroke-miterlimit:4;stroke-dasharray:none;stroke-opacity:1"
       id="ActionI"
       sodipodi:cx="336.00702"
       sodipodi:cy="267.03198"
       sodipodi:rx="20.692514"
       sodipodi:ry="20.692514"
       d="M 356.69953,267.03198 A 20.692514,20.692514 0 1 1 315.3145,267.03198 A 20.692514,20.692514 0 1 1 356.69953,267.03198 z"
       transform="matrix(-0.3567503,0.6274647,-3.0178279,-8.0881057e-2,1344.7755,310.31395)" />
    <path
       sodipodi:type="arc"
       style="fill:#CouleurG;fill-opacity:1;fill-rule:nonzero;stroke:#000000;stroke-width:5;stroke-miterlimit:4;stroke-dasharray:none;stroke-opacity:1"
       id="ActionG"
       sodipodi:cx="336.00702"
       sodipodi:cy="267.03198"
       sodipodi:rx="20.692514"
       sodipodi:ry="20.692514"
       d="M 356.69953,267.03198 A 20.692514,20.692514 0 1 1 315.3145,267.03198 A 20.692514,20.692514 0 1 1 356.69953,267.03198 z"
       transform="matrix(-0.5986997,-0.5628319,2.8881507,-0.539895,-148.2148,732.65095)" />
    <path
       sodipodi:type="arc"
       style="fill:#CouleurO;fill-opacity:1;fill-rule:nonzero;stroke:#000000;stroke-width:5;stroke-miterlimit:4;stroke-dasharray:none;stroke-opacity:1"
       id="ActionO"
       sodipodi:cx="336.00702"
       sodipodi:cy="267.03198"
       sodipodi:rx="20.692514"
       sodipodi:ry="20.692514"
       d="M 356.69953,267.03198 A 20.692514,20.692514 0 1 1 315.3145,267.03198 A 20.692514,20.692514 0 1 1 356.69953,267.03198 z"
       transform="matrix(0.961284,-9.8181117e-2,-9.5001247e-2,2.4195002,158.30288,-40.557062)" />
    <path
       sodipodi:type="arc"
       style="fill:#CouleurC;fill-opacity:1;fill-rule:nonzero;stroke:#000000;stroke-width:5;stroke-miterlimit:4;stroke-dasharray:none;stroke-opacity:1"
       id="ActionC"
       sodipodi:cx="336.00702"
       sodipodi:cy="267.03198"
       sodipodi:rx="20.692514"
       sodipodi:ry="20.692514"
       d="M 356.69953,267.03198 A 20.692514,20.692514 0 1 1 315.3145,267.03198 A 20.692514,20.692514 0 1 1 356.69953,267.03198 z"
       transform="matrix(-1.0654967,-0.24271,5.642013e-2,-2.1279663,718.44423,801.35405)"
       inkscape:label="#ActionC" />
    <rect
       style="fill:#ffffff;fill-opacity:1;fill-rule:nonzero;stroke:#000000;stroke-width:1.25;stroke-miterlimit:4;stroke-dasharray:none;stroke-opacity:1"
       id="rect4158"
       width="0"
       height="15.32857"
       x="196.48441"
       y="173.05962" />
    <rect
       style="fill:#ffffff;fill-opacity:1;fill-rule:nonzero;stroke:#000000;stroke-width:1.25;stroke-miterlimit:4;stroke-dasharray:none;stroke-opacity:1"
       id="rect4160"
       width="0"
       height="9.7545452"
       x="203.45193"
       y="191.1752" />
    <path
       sodipodi:type="arc"
       style="fill:#CouleurA;fill-opacity:1;fill-rule:nonzero;stroke:#000000;stroke-width:5;stroke-miterlimit:4;stroke-dasharray:none;stroke-opacity:1"
       id="ActionA"
       sodipodi:cx="336.00702"
       sodipodi:cy="267.03198"
       sodipodi:rx="20.692514"
       sodipodi:ry="20.692514"
       d="M 356.69953,267.03198 A 20.692514,20.692514 0 1 1 315.3145,267.03198 A 20.692514,20.692514 0 1 1 356.69953,267.03198 z"
       transform="matrix(-0.9805238,-0.507893,5.1920653e-2,-4.4529651,521.04842,1513.4413)"
       inkscape:label="#ActionA" />
    <path
       sodipodi:type="arc"
       style="fill:#CouleurB;fill-opacity:1;fill-rule:nonzero;stroke:#000000;stroke-width:5;stroke-miterlimit:4;stroke-dasharray:none;stroke-opacity:1"
       id="ActionB"
       sodipodi:cx="336.00702"
       sodipodi:cy="267.03198"
       sodipodi:rx="20.692514"
       sodipodi:ry="20.692514"
       d="M 356.69953,267.03198 A 20.692514,20.692514 0 1 1 315.3145,267.03198 A 20.692514,20.692514 0 1 1 356.69953,267.03198 z"
       transform="matrix(2.1126916,0,0,1.4276968,-504.68711,-76.753099)"
       inkscape:label="#ActionB" />
  </g>
</svg>
